<svg id="Compass" xmlns="http://www.w3.org/2000/svg" width="46.556" height="46.556" viewBox="0 0 46.556 46.556">
  <g id="Groupe_50" data-name="Groupe 50">
    <path id="Tracé_279" data-name="Tracé 279" d="M23.278,0A23.278,23.278,0,1,0,46.556,23.278,23.278,23.278,0,0,0,23.278,0Zm0,42.191A18.913,18.913,0,1,1,42.191,23.278,18.935,18.935,0,0,1,23.278,42.191Zm8.729-29.1a1.487,1.487,0,0,0-.422.063l-10.42,3.16a7.293,7.293,0,0,0-4.849,4.848l-3.159,10.42a1.4,1.4,0,0,0-.064.423,1.454,1.454,0,0,0,1.455,1.455,1.505,1.505,0,0,0,.423-.063l10.42-3.16a7.293,7.293,0,0,0,4.849-4.848L33.4,14.972a1.456,1.456,0,0,0-1.392-1.878ZM23.278,26.188a2.91,2.91,0,1,1,2.91-2.91A2.911,2.911,0,0,1,23.278,26.188Z" fill="#fff"/>
  </g>
</svg>
